<svg xmlns="http://www.w3.org/2000/svg" viewBox="0 0 24 24" fill="#0099EB">
  <path d="M6.2,3.01C4.44,3.01 3,4.45 3,6.2v11.6c0,1.76 1.44,3.2 3.2,3.2h11.6c1.76,0 3.2,-1.44 3.2,-3.2V6.2c0,-1.76 -1.44,-3.19 -3.2,-3.19zM6.2,4.81h11.6c0.78,0 1.4,0.63 1.4,1.4v11.6c0,0.77 -0.62,1.4 -1.4,1.4H6.2c-0.77,0 -1.4,-0.63 -1.4,-1.4V6.21c0,-0.77 0.63,-1.4 1.4,-1.4zM8.7,8.3A1.3,1.3 0 0,0 7.4,9.6c0,0.72 0.58,1.3 1.3,1.3 0.72,0 1.3,-0.58 1.3,-1.3 0,-0.72 -0.58,-1.3 -1.3,-1.3zM7.5,12c-0.28,0 -0.5,0.22 -0.5,0.5v3c0,0.28 0.22,0.5 0.5,0.5h2.5c0.28,0 0.5,-0.22 0.5,-0.5v-3c0,-0.28 -0.22,-0.5 -0.5,-0.5zM12,12c-0.28,0 -0.5,0.22 -0.5,0.5v3c0,0.28 0.22,0.5 0.5,0.5h4.5c0.28,0 0.5,-0.22 0.5,-0.5v-3c0,-0.28 -0.22,-0.5 -0.5,-0.5z"/>
</svg>